<svg width="120" height="32" viewBox="0 0 120 32" fill="none" xmlns="http://www.w3.org/2000/svg">
<path d="M14.994 27C20.5203 27 25 22.2991 25 16.5V9.15C25 8.31457 24.6837 7.51335 24.1208 6.92261C23.5578 6.33187 22.7943 6 21.9982 6H15.4943V10.6063C15.4943 11.6574 15.5553 12.7462 16.0806 13.6408C16.4567 14.282 16.9598 14.8307 17.5558 15.2499C18.1517 15.669 18.8267 15.9487 19.5347 16.07L19.7263 16.1026C19.8053 16.1309 19.8739 16.1845 19.9225 16.2557C19.971 16.327 19.9971 16.4124 19.9971 16.5C19.9971 16.5876 19.971 16.673 19.9225 16.7443C19.8739 16.8155 19.8053 16.8691 19.7263 16.8974L19.5347 16.93C18.5002 17.1073 17.5449 17.6212 16.8036 18.399C16.0624 19.1768 15.5727 20.1793 15.4037 21.2649L15.3727 21.466C15.3457 21.5489 15.2947 21.6208 15.2268 21.6718C15.1589 21.7227 15.0775 21.7501 14.994 21.7501C14.9105 21.7501 14.8291 21.7227 14.7612 21.6718C14.6933 21.6208 14.6423 21.5489 14.6153 21.466L14.5843 21.2649C14.4686 20.5219 14.2021 19.8137 13.8026 19.1883C13.4032 18.5629 12.8803 18.035 12.2694 17.6403C11.4168 17.0891 10.3792 17.025 9.37763 17.025H5C5.26166 22.58 9.63578 27 14.994 27Z" fill="#F2F2F2"/>
<path d="M5 15.7568H9.387C10.388 15.7568 11.425 15.6941 12.277 15.1549C12.943 14.7335 13.5036 14.1577 13.914 13.4737C14.439 12.5986 14.5 11.5336 14.5 10.5056V6H8C7.20435 6 6.44129 6.32461 5.87868 6.90243C5.31607 7.48024 5 8.26393 5 9.08108V15.7568ZM28.2275 7.02703C28.2275 7.29941 28.1221 7.56064 27.9346 7.75324C27.7471 7.94585 27.4927 8.05405 27.2275 8.05405C26.9623 8.05405 26.7079 7.94585 26.5204 7.75324C26.3329 7.56064 26.2275 7.29941 26.2275 7.02703C26.2275 6.75464 26.3329 6.49341 26.5204 6.30081C26.7079 6.1082 26.9623 6 27.2275 6C27.4927 6 27.7471 6.1082 27.9346 6.30081C28.1221 6.49341 28.2275 6.75464 28.2275 7.02703ZM110.855 12.2156C113.651 12.2156 115 14.2208 115 16.5435V20.9058H112.075V17.0611C112.075 16.0084 111.701 15.1395 110.628 15.1395C109.555 15.1395 109.198 16.0084 109.198 17.0611V20.9052H106.272V17.0611C106.272 16.0084 105.915 15.1395 104.842 15.1395C103.77 15.1395 103.396 16.0084 103.396 17.0611V20.9052H100.47V16.5429C100.47 14.2203 101.819 12.2151 104.615 12.2151C106.143 12.2151 107.248 12.8333 107.752 13.8526C108.288 12.8333 109.458 12.2145 110.855 12.2145V12.2156ZM95.2135 18.2319C96.156 18.2319 96.5625 17.3461 96.5625 16.2929V12.5494H99.4875V16.6605C99.4875 19.1172 98.09 21.1564 95.2135 21.1564C92.3365 21.1564 90.939 19.1177 90.939 16.6605V12.5494H93.8645V16.2929C93.8645 17.3456 94.2705 18.2319 95.2135 18.2319ZM86.6375 21.1728C84.801 21.1728 83.6145 20.5211 82.9155 19.2512L85.0285 18.0311C85.321 18.5657 85.7595 18.8332 86.491 18.8332C87.0925 18.8332 87.3685 18.616 87.3685 18.3485C87.3685 17.3291 83.078 18.3654 83.078 15.1236C83.078 13.5522 84.378 12.2823 86.5885 12.2823C88.5225 12.2823 89.579 13.2513 90.0505 14.1875L87.9375 15.424C87.759 14.9228 87.206 14.6219 86.6535 14.6219C86.231 14.6219 86.0035 14.8057 86.0035 15.0563C86.0035 16.0926 90.294 15.14 90.294 18.2817C90.294 20.0364 88.62 21.1728 86.6375 21.1728ZM76.4165 24.7494H73.491V16.7109C73.491 14.1536 75.36 12.2988 77.9605 12.2988C80.496 12.2988 82.43 14.2876 82.43 16.7109C82.43 19.3847 80.707 21.1564 78.123 21.1564C77.5215 21.1564 76.9205 20.9725 76.4165 20.688V24.7494ZM77.9605 18.332C78.887 18.332 79.5045 17.5967 79.5045 16.7273C79.5045 15.842 78.887 15.1231 77.9605 15.1231C77.034 15.1231 76.4165 15.842 76.4165 16.7278C76.4165 17.5967 77.034 18.332 77.9605 18.332ZM70.5605 11.6641C69.6015 11.6641 68.8055 10.845 68.8055 9.85905C68.8055 8.87311 69.6015 8.05405 70.5605 8.05405C71.5195 8.05405 72.316 8.87311 72.316 9.85905C72.316 10.845 71.5195 11.6641 70.5605 11.6641ZM69.098 12.5494H72.0235V20.9058H69.098V12.5494ZM63.485 21.1564C60.9495 21.1564 59.0155 19.1511 59.0155 16.7109C59.0155 14.2876 60.9495 12.2823 63.485 12.2823C66.0205 12.2823 67.9545 14.2876 67.9545 16.7109C67.9545 19.1511 66.0205 21.1564 63.485 21.1564ZM63.485 18.332C64.4115 18.332 65.029 17.5967 65.029 16.7273C65.029 15.842 64.4115 15.1066 63.485 15.1066C62.5585 15.1066 61.941 15.842 61.941 16.7273C61.941 17.5967 62.5585 18.332 63.485 18.332ZM53.4915 25C51.4765 25 50.0135 24.0808 49.266 22.4427L51.6875 21.106C51.9475 21.6745 52.435 22.2594 53.4425 22.2594C54.4995 22.2594 55.198 21.5738 55.2795 20.3707C54.8895 20.7219 54.2715 20.9889 53.3455 20.9889C51.086 20.9889 49.2655 19.2009 49.2655 16.6939C49.2655 14.2712 51.2 12.2988 53.7355 12.2988C56.336 12.2988 58.205 14.1541 58.205 16.7109V20.0199C58.205 23.0281 56.173 25 53.4915 25ZM53.6865 18.1651C54.564 18.1651 55.2305 17.5464 55.2305 16.6272C55.2305 15.7249 54.5645 15.1231 53.6865 15.1231C52.825 15.1231 52.1425 15.7249 52.1425 16.6277C52.1425 17.5469 52.825 18.1646 53.6865 18.1646V18.1651ZM44.3035 21.1564C41.768 21.1564 39.8335 19.1511 39.8335 16.7109C39.8335 14.2876 41.768 12.2823 44.3035 12.2823C46.8385 12.2823 48.773 14.2876 48.773 16.7109C48.773 19.1511 46.839 21.1564 44.3035 21.1564ZM44.3035 18.332C45.23 18.332 45.8475 17.5967 45.8475 16.7273C45.8475 15.842 45.23 15.1066 44.3035 15.1066C43.377 15.1066 42.7595 15.842 42.7595 16.7273C42.7595 17.5967 43.377 18.332 44.3035 18.332ZM34.5065 9.62541V18.0645H39.35V20.9058H34.1C32.2475 20.9058 31.5 19.9029 31.5 18.3151V9.62541H34.5065Z" fill="#F2F2F2"/>
</svg>
